<?xml version="1.0" standalone="no"?><svg xmlns="http://www.w3.org/2000/svg" viewBox="0 0 1440 320"><path fill="#775566" fill-opacity="1" d="M0,64L17.1,74.7C34.3,85,69,107,103,133.3C137.1,160,171,192,206,202.7C240,213,274,203,309,186.7C342.9,171,377,149,411,128C445.7,107,480,85,514,85.3C548.6,85,583,107,617,144C651.4,181,686,235,720,240C754.3,245,789,203,823,181.3C857.1,160,891,160,926,149.3C960,139,994,117,1029,117.3C1062.9,117,1097,139,1131,154.7C1165.7,171,1200,181,1234,165.3C1268.6,149,1303,107,1337,101.3C1371.4,96,1406,128,1423,144L1440,160L1440,320L1422.9,320C1405.7,320,1371,320,1337,320C1302.9,320,1269,320,1234,320C1200,320,1166,320,1131,320C1097.1,320,1063,320,1029,320C994.3,320,960,320,926,320C891.4,320,857,320,823,320C788.6,320,754,320,720,320C685.7,320,651,320,617,320C582.9,320,549,320,514,320C480,320,446,320,411,320C377.1,320,343,320,309,320C274.3,320,240,320,206,320C171.4,320,137,320,103,320C68.6,320,34,320,17,320L0,320Z"></path></svg>